<svg width="982" height="935" viewBox="0 0 982 935" fill="none" xmlns="http://www.w3.org/2000/svg">
<rect y="4.29246e-05" width="982" height="935" rx="46" fill="#373737"/>
<path d="M708.872 586.254L708.862 587.711C708.043 649.305 655.348 698.995 590.464 698.995C525.069 698.995 472.056 648.519 472.056 586.254C472.056 523.989 525.069 473.513 590.464 473.513C615.033 473.513 637.854 480.638 656.773 492.836L656.773 324.497L427.85 378.537L427.85 641.873L427.84 643.33C427.02 704.924 374.325 754.614 309.44 754.614C244.046 754.614 191.032 704.138 191.032 641.873C191.032 579.608 244.045 529.132 309.44 529.132C334.01 529.132 356.831 536.257 375.75 548.455L375.75 261.271L708.872 180.386L708.872 198.425L708.873 198.425L708.873 586.254L708.872 586.254Z" fill="#929292"/>
</svg>
